<svg width="100%" height="100%" viewBox="0 0 800 800" version="1.1" xmlns="http://www.w3.org/2000/svg" xmlns:xlink="http://www.w3.org/1999/xlink" xml:space="preserve" xmlns:serif="http://www.serif.com/" style="fill-rule:evenodd;clip-rule:evenodd;stroke-linejoin:round;stroke-miterlimit:2;"><g id="SVGRepo_iconCarrier"><path d="M659.102,217.768c-8.057,-5.525 -18.859,-6.345 -30.431,-2.297c-6.72,2.458 -13.203,5.527 -19.36,9.171l-14.736,8.397c-27.354,15.583 -55.633,31.694 -83.142,48.103c-14.075,8.373 -27.534,17.741 -40.271,28.032c-5.712,5.266 -13.208,8.172 -20.976,8.131l-0.2,-0c-51.006,-0.247 -102.863,-0.221 -153,-0.194l-52.111,0.021l0,1.128l-52.453,0.965c-49.189,0.904 -98.382,1.83 -147.578,2.781c-19.35,0.386 -30.193,9.059 -34.126,27.301c-2.797,12.068 -4.403,24.382 -4.794,36.764c-0.616,35.031 -0.338,71.004 -0.074,102.738c0.173,21.66 9.191,32.091 30.15,34.892c16.791,2.428 33.731,3.679 50.697,3.744c26.788,-0.288 54.005,-1.163 80.323,-2.003c13.794,-0.444 27.584,-0.884 41.378,-1.246l21.061,-0.556c75.129,-1.982 152.82,-4.035 229.233,-5.671c8.08,-0.356 16.142,1.014 23.652,4.018c27.619,12.307 55.535,25.221 82.539,37.708c15.06,6.965 30.131,13.91 45.218,20.834c5.971,2.652 12.175,4.759 18.524,6.304c3.494,0.966 7.096,1.491 10.72,1.558c9.651,0 15.643,-4.936 19.649,-15.582c4.227,-11.714 6.621,-24.013 7.117,-36.459l0.243,-4.6c2.849,-54.316 5.796,-110.485 7.05,-165.794c0.929,-41.03 -0.398,-82.138 -1.693,-121.891c-0.346,-11.632 -4.821,-20.945 -12.609,-26.297Zm-29.136,49.027l-11.783,259.46l-115.609,-47.49l-8.99,-137.765l136.382,-74.205Zm-566.487,220.652l-18.76,-1.263c-5.386,-25.555 -4.909,-101.115 0.81,-127.507l24.187,-1.098l-6.237,129.868Zm390.277,-140.359l0,128.307l-336.571,11.968c-3.544,-26.189 -5.562,-52.561 -6.043,-78.984c-0.634,-16.599 -1.284,-33.73 -2.711,-50.98c56.092,-4.065 112.746,-4.403 167.563,-4.742c58.218,-0.356 118.379,-0.715 177.749,-5.552l0.013,-0.017Z" style="fill-rule:nonzero;"/><path d="M771.427,360.407c-19.51,1.738 -38.772,5.116 -53.373,7.863c-4.299,0.622 -8.222,2.803 -11.019,6.127c-2.798,3.324 -4.279,7.561 -4.16,11.904c0.067,9.147 5.94,15.64 15.706,17.412c6.585,1.057 13.218,1.745 19.871,2.06c3.169,0.21 6.477,0.431 9.966,0.732l0.377,0.034l0.371,-0.054c2.437,-0.339 5.048,-0.597 7.768,-0.871c7.247,-0.528 14.431,-1.699 21.471,-3.499c12.016,-3.439 18.349,-13.487 15.763,-25.008c-0.873,-5.196 -3.737,-9.846 -7.985,-12.965c-4.248,-3.117 -9.543,-4.458 -14.756,-3.735Z" style="fill-rule:nonzero;"/><path d="M706.715,282.667c0.882,0.404 1.739,0.856 2.565,1.355l1.239,0.806l1.429,-0.356c1.719,-0.427 3.267,-0.725 4.677,-1.016c2.74,-0.378 5.403,-1.17 7.901,-2.35l2.88,-1.542c14.597,-7.812 29.683,-15.884 44.088,-24.638c5.807,-3.72 10.663,-8.741 14.189,-14.665c1.703,-2.476 2.689,-5.371 2.854,-8.37c0.165,-2.999 -0.496,-5.986 -1.91,-8.635c-1.579,-2.426 -3.799,-4.364 -6.415,-5.599c-2.617,-1.235 -5.523,-1.718 -8.403,-1.393c-7.396,0.562 -14.565,2.834 -20.934,6.636c-11.045,6.487 -21.765,13.828 -32.14,20.922l-7.514,5.115c-4.3,2.417 -8,5.758 -10.844,9.783c-1.44,2.539 -2.359,5.343 -2.689,8.245c-0.331,2.901 -0.073,5.84 0.758,8.639c1.76,3.316 4.718,5.841 8.269,7.063Z" style="fill-rule:nonzero;"/><path d="M762.348,504.029c-11.489,-6.097 -23.52,-11.517 -35.163,-16.737l-5.57,-2.507c-4.361,-2.169 -9.403,-2.525 -14.023,-0.989c-1.589,0.611 -3.029,1.539 -4.242,2.727c-1.213,1.189 -2.168,2.613 -2.813,4.184c-2.271,5.295 -3.154,15.803 1.177,20.959c13.863,16.48 32.495,27.5 58.652,34.681l1.373,0.376l1.234,-0.721c1.068,-0.623 2.421,-1.23 3.855,-1.873c3.944,-1.765 8.413,-3.768 10.354,-7.708c2.637,-5.345 1.316,-13.6 -1.352,-18.99c-3.066,-5.707 -7.758,-10.372 -13.482,-13.402Z" style="fill-rule:nonzero;"/><path d="M284.478,463.895c6.097,0.166 12.27,0.125 18.239,0.091l4.671,-0.027l0.126,1.473l3.415,-0.338c3.682,-0.359 7.367,-0.677 11.056,-0.996c8.763,-0.759 17.829,-1.542 26.714,-2.873c2.04,-0.17 4.025,-0.758 5.827,-1.729c1.802,-0.97 3.388,-2.302 4.651,-3.911c1.267,-1.61 2.189,-3.463 2.707,-5.444c0.518,-1.981 0.62,-4.048 0.305,-6.07c-0.129,-2.043 -0.667,-4.039 -1.589,-5.867c-0.918,-1.829 -2.202,-3.451 -3.764,-4.772c-1.565,-1.319 -3.381,-2.309 -5.338,-2.909c-1.958,-0.599 -4.015,-0.796 -6.051,-0.578c-18.848,1.016 -41.162,2.469 -63.78,5.382c-3.269,0.934 -6.225,2.732 -8.557,5.205c-2.333,2.473 -3.955,5.529 -4.696,8.847c-0.234,1.647 -0.116,3.327 0.348,4.926c0.463,1.598 1.262,3.079 2.342,4.346c1.75,1.745 3.841,3.112 6.141,4.014c2.302,0.902 4.763,1.321 7.233,1.23Z" style="fill-rule:nonzero;"/><path d="M396.223,458.295l0.041,-0c5.969,-0 18.384,-0.017 20.251,-13.801c0.284,-1.847 0.166,-3.733 -0.356,-5.528c-0.518,-1.795 -1.422,-3.455 -2.649,-4.865c-2.236,-2.219 -4.912,-3.943 -7.859,-5.061c-2.944,-1.118 -6.091,-1.605 -9.238,-1.429c-8.069,-0.102 -14.068,1.673 -17.697,5.314c-1.253,1.277 -2.228,2.799 -2.869,4.47c-0.643,1.67 -0.934,3.455 -0.857,5.242c0.183,9.516 8.513,15.658 21.233,15.658Z" style="fill-rule:nonzero;"/></g></svg>